<svg width="28" height="28" viewBox="0 0 28 28" fill="none" xmlns="http://www.w3.org/2000/svg">
<path d="M1.63666 8.99998H0.666656V0.666648L1.63666 8.99998ZM1.63666 8.99998C2.74307 6.26353 4.72613 3.9715 7.27504 2.48308C9.82395 0.994671 12.7947 0.394003 15.7216 0.775215C18.6485 1.15643 21.3663 2.49797 23.4489 4.58961C25.5316 6.68125 26.8614 9.40476 27.23 12.3333M1.63666 8.99998H8.99999M26.365 19H27.3333V27.3333L26.365 19ZM26.365 19C25.257 21.7348 23.2734 24.0251 20.7247 25.5121C18.1761 26.9992 15.2062 27.5992 12.2802 27.2181C9.35409 26.837 6.63699 25.4964 4.55421 23.4062C2.47144 21.3159 1.14058 18.5941 0.769989 15.6666M26.365 19H19" stroke="#121212" stroke-linecap="round" stroke-linejoin="round"/>
</svg>
